# Blender v3.3.1 OBJ File: 'BIGBOY_2D.blend'
# www.blender.org
mtllib ground.mtl
o Cube
v 1.000000 -1.000000 1.000000
v 1.000000 -0.900000 1.000000
v -1.000000 -1.000000 1.000000
v -1.000000 -0.900000 1.000000
v 1.000000 -1.000000 -1.000000
v 1.000000 -0.900000 -1.000000
v -1.000000 -1.000000 -1.000000
v -1.000000 -0.900000 -1.000000
vt 0.000000 0.000000
vt 0.062234 0.000000
vt 0.062234 1.000000
vt 0.000000 1.000000
vt 0.000000 0.000000
vt 0.062500 0.000000
vt 0.062500 1.000000
vt 0.000000 1.000000
vt 0.375000 0.500000
vt 0.625000 0.500000
vt 0.625000 0.750000
vt 0.375000 0.750000
vt 0.000000 0.000000
vt 0.062500 0.000000
vt 0.062500 1.000000
vt 0.000000 1.000000
vt 0.125000 0.500000
vt 0.125000 0.750000
vt 0.000100 0.000100
vt 0.999900 0.000100
vt 0.999900 0.999900
vt 0.000100 0.999900
vn 0.0000 0.0000 1.0000
vn -1.0000 0.0000 0.0000
vn 0.0000 0.0000 -1.0000
vn 1.0000 0.0000 0.0000
vn 0.0000 -1.0000 0.0000
vn 0.0000 1.0000 0.0000
usemtl Material.003
s off
f 1/1/1 2/2/1 4/3/1 3/4/1
f 3/5/2 4/6/2 8/7/2 7/8/2
f 7/9/3 8/10/3 6/11/3 5/12/3
f 5/13/4 6/14/4 2/15/4 1/16/4
f 3/17/5 7/9/5 5/12/5 1/18/5
f 8/19/6 4/20/6 2/21/6 6/22/6
