# Blender v3.1.2 OBJ File: 'eggy.blend'
# www.blender.org
mtllib eggy.mtl
o ground_Plane.001
v -1.000000 -1.000000 -0.000000
v 1.000000 -1.000000 -0.000000
v -1.000000 -0.900000 0.000000
v 1.000000 -0.900000 0.000000
v -0.904762 -1.000000 -0.000000
v -0.809524 -1.000000 -0.000000
v -0.714286 -1.000000 -0.000000
v -0.619048 -1.000000 -0.000000
v -0.523810 -1.000000 -0.000000
v -0.428572 -1.000000 -0.000000
v -0.333333 -1.000000 -0.000000
v -0.238095 -1.000000 -0.000000
v -0.142857 -1.000000 -0.000000
v -0.047619 -1.000000 -0.000000
v 0.047619 -1.000000 -0.000000
v 0.142857 -1.000000 -0.000000
v 0.238095 -1.000000 -0.000000
v 0.333333 -1.000000 -0.000000
v 0.428571 -1.000000 -0.000000
v 0.523810 -1.000000 -0.000000
v 0.619048 -1.000000 -0.000000
v 0.714286 -1.000000 -0.000000
v 0.809524 -1.000000 -0.000000
v 0.904762 -1.000000 -0.000000
v 0.904762 -0.900000 0.000000
v 0.809524 -0.900000 0.000000
v 0.714286 -0.900000 0.000000
v 0.619048 -0.900000 0.000000
v 0.523810 -0.900000 0.000000
v 0.428572 -0.900000 0.000000
v 0.333333 -0.900000 0.000000
v 0.238095 -0.900000 0.000000
v 0.142857 -0.900000 0.000000
v 0.047619 -0.900000 0.000000
v -0.047619 -0.900000 0.000000
v -0.142857 -0.900000 0.000000
v -0.238095 -0.900000 0.000000
v -0.333333 -0.900000 0.000000
v -0.428571 -0.900000 0.000000
v -0.523810 -0.900000 0.000000
v -0.619048 -0.900000 0.000000
v -0.714286 -0.900000 0.000000
v -0.809524 -0.900000 0.000000
v -0.904762 -0.900000 0.000000
vt 0.000000 0.000000
vt 1.000000 0.000000
vt 1.000000 1.000000
vt 0.000000 1.000000
vt 0.000000 0.000000
vt 1.000000 0.000000
vt 1.000000 1.000000
vt 0.000000 1.000000
vt 0.000000 0.000000
vt 1.000000 0.000000
vt 1.000000 1.000000
vt 0.000000 1.000000
vt 0.000000 0.000000
vt 1.000000 0.000000
vt 1.000000 1.000000
vt 0.000000 1.000000
vt 0.000000 0.000000
vt 1.000000 0.000000
vt 1.000000 1.000000
vt 0.000000 1.000000
vt 0.000000 0.000000
vt 1.000000 0.000000
vt 1.000000 1.000000
vt 0.000000 1.000000
vt 0.000000 0.000000
vt 1.000000 0.000000
vt 1.000000 1.000000
vt 0.000000 1.000000
vt 0.000000 0.000000
vt 1.000000 0.000000
vt 1.000000 1.000000
vt 0.000000 1.000000
vt 0.000000 0.000000
vt 1.000000 0.000000
vt 1.000000 1.000000
vt 0.000000 1.000000
vt 0.000000 0.000000
vt 1.000000 0.000000
vt 1.000000 1.000000
vt 0.000000 1.000000
vt 0.000000 0.000000
vt 1.000000 0.000000
vt 1.000000 1.000000
vt 0.000000 1.000000
vt 0.000000 0.000000
vt 1.000000 0.000000
vt 1.000000 1.000000
vt 0.000000 1.000000
vt 0.000000 0.000000
vt 1.000000 0.000000
vt 1.000000 1.000000
vt 0.000000 1.000000
vt 0.000000 0.000000
vt 1.000000 0.000000
vt 1.000000 1.000000
vt 0.000000 1.000000
vt 0.000000 0.000000
vt 1.000000 0.000000
vt 1.000000 1.000000
vt 0.000000 1.000000
vt 0.000000 0.000000
vt 1.000000 0.000000
vt 1.000000 1.000000
vt 0.000000 1.000000
vt 0.000000 0.000000
vt 1.000000 0.000000
vt 1.000000 1.000000
vt 0.000000 1.000000
vt 0.000000 0.000000
vt 1.000000 0.000000
vt 1.000000 1.000000
vt 0.000000 1.000000
vt 0.000000 0.000000
vt 1.000000 0.000000
vt 1.000000 1.000000
vt 0.000000 1.000000
vt 0.000000 0.000000
vt 1.000000 0.000000
vt 1.000000 1.000000
vt 0.000000 1.000000
vt 0.000000 0.000000
vt 1.000000 0.000000
vt 1.000000 1.000000
vt 0.000000 1.000000
vn 0.0000 -0.0000 1.0000
usemtl Material.008
s off
f 24/1/1 2/2/1 4/3/1 25/4/1
f 1/5/1 5/6/1 44/7/1 3/8/1
f 5/9/1 6/10/1 43/11/1 44/12/1
f 6/13/1 7/14/1 42/15/1 43/16/1
f 7/17/1 8/18/1 41/19/1 42/20/1
f 8/21/1 9/22/1 40/23/1 41/24/1
f 9/25/1 10/26/1 39/27/1 40/28/1
f 10/29/1 11/30/1 38/31/1 39/32/1
f 11/33/1 12/34/1 37/35/1 38/36/1
f 12/37/1 13/38/1 36/39/1 37/40/1
f 13/41/1 14/42/1 35/43/1 36/44/1
f 14/45/1 15/46/1 34/47/1 35/48/1
f 15/49/1 16/50/1 33/51/1 34/52/1
f 16/53/1 17/54/1 32/55/1 33/56/1
f 17/57/1 18/58/1 31/59/1 32/60/1
f 18/61/1 19/62/1 30/63/1 31/64/1
f 19/65/1 20/66/1 29/67/1 30/68/1
f 20/69/1 21/70/1 28/71/1 29/72/1
f 21/73/1 22/74/1 27/75/1 28/76/1
f 22/77/1 23/78/1 26/79/1 27/80/1
f 23/81/1 24/82/1 25/83/1 26/84/1
o 0_Plane.007
v -1.000000 -1.000000 0.600000
v 1.000000 -1.000000 0.600000
v -1.000000 1.000000 0.600000
v 1.000000 1.000000 0.600000
vt 0.000071 0.000071
vt 0.500000 0.000071
vt 0.500000 0.999929
vt 0.000071 0.999929
vn 0.0000 -0.0000 1.0000
usemtl Material.002
s off
f 45/85/2 46/86/2 48/87/2 47/88/2
o 1_Plane.009
v -1.000000 -1.000000 0.400000
v 1.000000 -1.000000 0.400000
v -1.000000 1.000000 0.400000
v 1.000000 1.000000 0.400000
vt 0.500000 0.000071
vt 0.000071 0.000071
vt 0.000071 0.999929
vt 0.500000 0.999929
vn 0.0000 -0.0000 1.0000
usemtl Material.003
s off
f 49/89/3 50/90/3 52/91/3 51/92/3
o 2_Plane.010
v -1.000000 -1.000000 0.300000
v 1.000000 -1.000000 0.300000
v -1.000000 1.000000 0.300000
v 1.000000 1.000000 0.300000
vt 0.724609 0.000071
vt 0.224680 0.000071
vt 0.224680 0.999929
vt 0.724609 0.999929
vn 0.0000 -0.0000 1.0000
usemtl Material.004
s off
f 53/93/4 54/94/4 56/95/4 55/96/4
o 3_Plane.011
v -1.000000 -1.000000 0.200000
v 1.000000 -1.000000 0.200000
v -1.000000 1.000000 0.200000
v 1.000000 1.000000 0.200000
vt 0.000071 0.000071
vt 0.500000 0.000071
vt 0.500000 0.999929
vt 0.000071 0.999929
vn 0.0000 -0.0000 1.0000
usemtl Material.005
s off
f 57/97/5 58/98/5 60/99/5 59/100/5
o 4_Plane.012
v -1.000000 -1.000000 0.100000
v 1.000000 -1.000000 0.100000
v -1.000000 1.000000 0.100000
v 1.000000 1.000000 0.100000
vt 0.810059 0.000071
vt 0.310130 0.000071
vt 0.310130 0.999929
vt 0.810059 0.999929
vn 0.0000 -0.0000 1.0000
usemtl Material.006
s off
f 61/101/6 62/102/6 64/103/6 63/104/6
o moon_Plane.013
v 0.000000 0.000000 0.550000
v 1.000000 0.000000 0.550000
v 0.000000 1.000000 0.550000
v 1.000000 1.000000 0.550000
vt 0.999900 0.000100
vt 0.999900 0.999900
vt 0.000100 0.999900
vt 0.000100 0.000100
vn 0.0000 -0.0000 1.0000
usemtl Material.012
s off
f 65/105/7 66/106/7 68/107/7 67/108/7
o idle0_Plane.002
v -0.100000 -0.900000 -0.000000
v 0.100000 -0.900000 -0.000000
v -0.100000 -0.700000 0.000000
v 0.100000 -0.700000 0.000000
vt 1.000000 0.000000
vt 0.000000 0.000000
vt 0.000000 1.000000
vt 1.000000 1.000000
vn 0.0000 -0.0000 1.0000
usemtl Material.010
s off
f 69/109/8 70/110/8 72/111/8 71/112/8
o idle0.001_Plane.003
v -0.100000 -0.900000 -0.000000
v 0.100000 -0.900000 -0.000000
v -0.100000 -0.700000 0.000000
v 0.100000 -0.700000 0.000000
vt 1.000000 0.000000
vt 0.000000 0.000000
vt 0.000000 1.000000
vt 1.000000 1.000000
vn 0.0000 -0.0000 1.0000
usemtl Material.015
s off
f 73/113/9 74/114/9 76/115/9 75/116/9
o idle0.002_Plane.004
v -0.100000 -0.900000 -0.000000
v 0.100000 -0.900000 -0.000000
v -0.100000 -0.700000 0.000000
v 0.100000 -0.700000 0.000000
vt 1.000000 0.000000
vt 0.000000 0.000000
vt 0.000000 1.000000
vt 1.000000 1.000000
vn 0.0000 -0.0000 1.0000
usemtl Material.007
s off
f 77/117/10 78/118/10 80/119/10 79/120/10
o idle0.003_Plane.005
v -0.100000 -0.900000 -0.000000
v 0.100000 -0.900000 -0.000000
v -0.100000 -0.700000 0.000000
v 0.100000 -0.700000 0.000000
vt 1.000000 0.000000
vt 0.000000 0.000000
vt 0.000000 1.000000
vt 1.000000 1.000000
vn 0.0000 -0.0000 1.0000
usemtl Material.013
s off
f 81/121/11 82/122/11 84/123/11 83/124/11
o left0.009_Plane.008
v -0.100000 -0.900000 -0.000000
v 0.100000 -0.900000 -0.000000
v -0.100000 -0.700000 0.000000
v 0.100000 -0.700000 0.000000
vt 1.000000 0.000000
vt 0.000000 0.000000
vt 0.000000 1.000000
vt 1.000000 1.000000
vn 0.0000 -0.0000 1.0000
usemtl Material.016
s off
f 85/125/12 86/126/12 88/127/12 87/128/12
o left0.001_Plane.016
v -0.100000 -0.900000 -0.000000
v 0.100000 -0.900000 -0.000000
v -0.100000 -0.700000 0.000000
v 0.100000 -0.700000 0.000000
vt 1.000000 0.000000
vt 0.000000 0.000000
vt 0.000000 1.000000
vt 1.000000 1.000000
vn 0.0000 -0.0000 1.0000
usemtl Material.017
s off
f 89/129/13 90/130/13 92/131/13 91/132/13
o left0.002_Plane.017
v -0.100000 -0.900000 -0.000000
v 0.100000 -0.900000 -0.000000
v -0.100000 -0.700000 0.000000
v 0.100000 -0.700000 0.000000
vt 1.000000 0.000000
vt 0.000000 0.000000
vt 0.000000 1.000000
vt 1.000000 1.000000
vn 0.0000 -0.0000 1.0000
usemtl Material.018
s off
f 93/133/14 94/134/14 96/135/14 95/136/14
o left0.003_Plane.018
v -0.100000 -0.900000 -0.000000
v 0.100000 -0.900000 -0.000000
v -0.100000 -0.700000 0.000000
v 0.100000 -0.700000 0.000000
vt 1.000000 0.000000
vt 0.000000 0.000000
vt 0.000000 1.000000
vt 1.000000 1.000000
vn 0.0000 -0.0000 1.0000
usemtl Material.019
s off
f 97/137/15 98/138/15 100/139/15 99/140/15
o left0.004_Plane.019
v -0.100000 -0.900000 -0.000000
v 0.100000 -0.900000 -0.000000
v -0.100000 -0.700000 0.000000
v 0.100000 -0.700000 0.000000
vt 1.000000 0.000000
vt 0.000000 0.000000
vt 0.000000 1.000000
vt 1.000000 1.000000
vn 0.0000 -0.0000 1.0000
usemtl Material.020
s off
f 101/141/16 102/142/16 104/143/16 103/144/16
o left0.005_Plane.020
v -0.100000 -0.900000 -0.000000
v 0.100000 -0.900000 -0.000000
v -0.100000 -0.700000 0.000000
v 0.100000 -0.700000 0.000000
vt 1.000000 0.000000
vt 0.000000 0.000000
vt 0.000000 1.000000
vt 1.000000 1.000000
vn 0.0000 -0.0000 1.0000
usemtl Material.021
s off
f 105/145/17 106/146/17 108/147/17 107/148/17
o left0.006_Plane.021
v -0.100000 -0.900000 -0.000000
v 0.100000 -0.900000 -0.000000
v -0.100000 -0.700000 0.000000
v 0.100000 -0.700000 0.000000
vt 1.000000 0.000000
vt 0.000000 0.000000
vt 0.000000 1.000000
vt 1.000000 1.000000
vn 0.0000 -0.0000 1.0000
usemtl Material.025
s off
f 109/149/18 110/150/18 112/151/18 111/152/18
o left0.007_Plane.022
v -0.100000 -0.900000 -0.000000
v 0.100000 -0.900000 -0.000000
v -0.100000 -0.700000 0.000000
v 0.100000 -0.700000 0.000000
vt 1.000000 0.000000
vt 0.000000 0.000000
vt 0.000000 1.000000
vt 1.000000 1.000000
vn 0.0000 -0.0000 1.0000
usemtl Material.023
s off
f 113/153/19 114/154/19 116/155/19 115/156/19
o left0.008_Plane.023
v -0.100000 -0.900000 -0.000000
v 0.100000 -0.900000 -0.000000
v -0.100000 -0.700000 0.000000
v 0.100000 -0.700000 0.000000
vt 1.000000 0.000000
vt 0.000000 0.000000
vt 0.000000 1.000000
vt 1.000000 1.000000
vn 0.0000 -0.0000 1.0000
usemtl Material.024
s off
f 117/157/20 118/158/20 120/159/20 119/160/20
o right0_Plane.024
v -0.100000 -0.900000 -0.000000
v 0.100000 -0.900000 -0.000000
v -0.100000 -0.700000 0.000000
v 0.100000 -0.700000 0.000000
vt 1.000000 0.000000
vt 0.000000 0.000000
vt 0.000000 1.000000
vt 1.000000 1.000000
vn 0.0000 -0.0000 1.0000
usemtl Material.026
s off
f 121/161/21 122/162/21 124/163/21 123/164/21
o right0.001_Plane.025
v -0.100000 -0.900000 -0.000000
v 0.100000 -0.900000 -0.000000
v -0.100000 -0.700000 0.000000
v 0.100000 -0.700000 0.000000
vt 1.000000 0.000000
vt 0.000000 0.000000
vt 0.000000 1.000000
vt 1.000000 1.000000
vn 0.0000 -0.0000 1.0000
usemtl Material.027
s off
f 125/165/22 126/166/22 128/167/22 127/168/22
o right0.002_Plane.026
v -0.100000 -0.900000 -0.000000
v 0.100000 -0.900000 -0.000000
v -0.100000 -0.700000 0.000000
v 0.100000 -0.700000 0.000000
vt 1.000000 0.000000
vt 0.000000 0.000000
vt 0.000000 1.000000
vt 1.000000 1.000000
vn 0.0000 -0.0000 1.0000
usemtl Material.028
s off
f 129/169/23 130/170/23 132/171/23 131/172/23
o right0.003_Plane.027
v -0.100000 -0.900000 -0.000000
v 0.100000 -0.900000 -0.000000
v -0.100000 -0.700000 0.000000
v 0.100000 -0.700000 0.000000
vt 1.000000 0.000000
vt 0.000000 0.000000
vt 0.000000 1.000000
vt 1.000000 1.000000
vn 0.0000 -0.0000 1.0000
usemtl Material.029
s off
f 133/173/24 134/174/24 136/175/24 135/176/24
o right0.004_Plane.028
v -0.100000 -0.900000 -0.000000
v 0.100000 -0.900000 -0.000000
v -0.100000 -0.700000 0.000000
v 0.100000 -0.700000 0.000000
vt 1.000000 0.000000
vt 0.000000 0.000000
vt 0.000000 1.000000
vt 1.000000 1.000000
vn 0.0000 -0.0000 1.0000
usemtl Material.030
s off
f 137/177/25 138/178/25 140/179/25 139/180/25
o right0.005_Plane.029
v -0.100000 -0.900000 -0.000000
v 0.100000 -0.900000 -0.000000
v -0.100000 -0.700000 0.000000
v 0.100000 -0.700000 0.000000
vt 1.000000 0.000000
vt 0.000000 0.000000
vt 0.000000 1.000000
vt 1.000000 1.000000
vn 0.0000 -0.0000 1.0000
usemtl Material.031
s off
f 141/181/26 142/182/26 144/183/26 143/184/26
o right0.006_Plane.030
v -0.100000 -0.900000 -0.000000
v 0.100000 -0.900000 -0.000000
v -0.100000 -0.700000 0.000000
v 0.100000 -0.700000 0.000000
vt 1.000000 0.000000
vt 0.000000 0.000000
vt 0.000000 1.000000
vt 1.000000 1.000000
vn 0.0000 -0.0000 1.0000
usemtl Material.032
s off
f 145/185/27 146/186/27 148/187/27 147/188/27
o right0.007_Plane.031
v -0.100000 -0.900000 -0.000000
v 0.100000 -0.900000 -0.000000
v -0.100000 -0.700000 0.000000
v 0.100000 -0.700000 0.000000
vt 1.000000 0.000000
vt 0.000000 0.000000
vt 0.000000 1.000000
vt 1.000000 1.000000
vn 0.0000 -0.0000 1.0000
usemtl Material.033
s off
f 149/189/28 150/190/28 152/191/28 151/192/28
o right0.008_Plane.032
v -0.100000 -0.900000 -0.000000
v 0.100000 -0.900000 -0.000000
v -0.100000 -0.700000 0.000000
v 0.100000 -0.700000 0.000000
vt 1.000000 0.000000
vt 0.000000 0.000000
vt 0.000000 1.000000
vt 1.000000 1.000000
vn 0.0000 -0.0000 1.0000
usemtl Material.034
s off
f 153/193/29 154/194/29 156/195/29 155/196/29
